HIERARCHY
ROOT hip
{
	OFFSET 0.000000 0.000000 0.000000
	CHANNELS 6 Xposition Yposition Zposition Zrotation Yrotation Xrotation 
	JOINT lhipjoint
	{
		OFFSET 0.000000 0.000000 0.000000
		CHANNELS 3 Zrotation Yrotation Xrotation
		JOINT lfemur
		{
			OFFSET 1.363060 -1.794630 0.839290
			CHANNELS 3 Zrotation Yrotation Xrotation
			JOINT ltibia
			{
				OFFSET 2.448110 -6.726130 0.000000
				CHANNELS 3 Zrotation Yrotation Xrotation
				JOINT lfoot
				{
					OFFSET 2.562200 -7.039590 0.000000
					CHANNELS 3 Zrotation Yrotation Xrotation
					JOINT ltoes
					{
						OFFSET 0.157640 -0.433110 2.322550
						CHANNELS 3 Zrotation Yrotation Xrotation
						End Site
						{
							OFFSET 0.000000 0.000000 0.000000
						}
					}
				}
			}
		}
	}
	JOINT rhipjoint
	{
		OFFSET 0.000000 0.000000 0.000000
		CHANNELS 3 Zrotation Yrotation Xrotation
		JOINT rfemur
		{
			OFFSET -1.305520 -1.794630 0.839290
			CHANNELS 3 Zrotation Yrotation Xrotation
			JOINT rtibia
			{
				OFFSET -2.542530 -6.985550 0.000000
				CHANNELS 3 Zrotation Yrotation Xrotation
				JOINT rfoot
				{
					OFFSET -2.568260 -7.056230 0.000000
					CHANNELS 3 Zrotation Yrotation Xrotation
					JOINT rtoes
					{
						OFFSET -0.164730 -0.452590 2.363150
						CHANNELS 3 Zrotation Yrotation Xrotation
						End Site
						{
							OFFSET 0.000000 0.000000 0.000000
						}
					}
				}
			}
		}
	}
	JOINT lowerback
	{
		OFFSET 0.000000 0.000000 0.000000
		CHANNELS 3 Zrotation Yrotation Xrotation
		JOINT upperback
		{
			OFFSET 0.028270 2.035590 -0.193380
			CHANNELS 3 Zrotation Yrotation Xrotation
			JOINT thorax
			{
				OFFSET 0.056720 2.048850 -0.042750
				CHANNELS 3 Zrotation Yrotation Xrotation
				JOINT lowerneck
				{
					OFFSET 0.000000 0.000000 0.000000
					CHANNELS 3 Zrotation Yrotation Xrotation
					JOINT upperneck
					{
						OFFSET -0.054170 1.746240 0.172020
						CHANNELS 3 Zrotation Yrotation Xrotation
						JOINT head
						{
							OFFSET 0.104070 1.761360 -0.123970
							CHANNELS 3 Zrotation Yrotation Xrotation
							End Site
							{
								OFFSET 0.000000 0.000000 0.000000
							}
						}
					}
				}
				JOINT lclavicle
				{
					OFFSET 0.000000 0.000000 0.000000
					CHANNELS 3 Zrotation Yrotation Xrotation
					JOINT lhumerus
					{
						OFFSET 3.362410 1.200890 -0.311210
						CHANNELS 3 Zrotation Yrotation Xrotation
						JOINT lradius
						{
							OFFSET 4.983000 -0.000000 -0.000000
							CHANNELS 3 Zrotation Yrotation Xrotation
							JOINT lwrist
							{
								OFFSET 3.483560 -0.000000 -0.000000
								CHANNELS 3 Zrotation Yrotation Xrotation
								JOINT lhand
								{
									OFFSET 0.000000 0.000000 0.000000
									CHANNELS 3 Zrotation Yrotation Xrotation
									JOINT lfingers
									{
										OFFSET 0.715260 -0.000000 -0.000000
										CHANNELS 3 Zrotation Yrotation Xrotation
										End Site
										{
											OFFSET 0.000000 0.000000 0.000000
										}
									}
								}
								JOINT lthumb
								{
									OFFSET 0.000000 0.000000 0.000000
									CHANNELS 3 Zrotation Yrotation Xrotation
									End Site
									{
										OFFSET 0.000000 0.000000 0.000000
									}
								}
							}
						}
					}
				}
				JOINT rclavicle
				{
					OFFSET 0.000000 0.000000 0.000000
					CHANNELS 3 Zrotation Yrotation Xrotation
					JOINT rhumerus
					{
						OFFSET -3.136600 1.374050 -0.404650
						CHANNELS 3 Zrotation Yrotation Xrotation
						JOINT rradius
						{
							OFFSET -5.241900 -0.000000 -0.000000
							CHANNELS 3 Zrotation Yrotation Xrotation
							JOINT rwrist
							{
								OFFSET -3.444170 -0.000000 -0.000000
								CHANNELS 3 Zrotation Yrotation Xrotation
								JOINT rhand
								{
									OFFSET 0.000000 0.000000 0.000000
									CHANNELS 3 Zrotation Yrotation Xrotation
									JOINT rfingers
									{
										OFFSET -0.622530 -0.000000 -0.000000
										CHANNELS 3 Zrotation Yrotation Xrotation
										End Site
										{
											OFFSET 0.000000 0.000000 0.000000
										}
									}
								}
								JOINT rthumb
								{
									OFFSET 0.000000 0.000000 0.000000
									CHANNELS 3 Zrotation Yrotation Xrotation
									End Site
									{
										OFFSET 0.000000 0.000000 0.000000
									}
								}
							}
						}
					}
				}
			}
		}
	}
}
MOTION
Frames: 6
Frame Time: 0.008333
-7.684578 13.973497 -9.405449 -147.574353 77.329676 -157.800900 -2.714072 0.334263 -0.451659 -4.933772 -7.518683 -44.350199 20.375861 18.813991 90.711357 2.729760 -22.545300 -7.365268 0.175500 2.698200 7.439500 -1.035764 -3.095876 0.710799 22.197287 5.014146 -48.086005 -18.427463 -19.602757 85.779889 -2.016874 10.365800 -4.674624 -4.102600 -12.295700 36.786300 -2.962438 0.644969 29.846413 0.187164 -0.173253 -2.873787 0.819373 1.221893 -2.488670 -1.958057 -2.806163 -2.045300 1.281186 -3.837829 12.203422 3.916700 -2.090800 5.395800 1.847999 1.599954 -0.357550 -84.754430 -21.486277 -60.181751 8.137263 -18.327346 -1.742374 -0.095369 1.851489 -123.058267 20.367952 -0.893548 0.036400 -7.125000 0.000000 0.000000 -6.143300 30.063900 2.250800 -1.360409 -0.250813 3.812547 64.626685 -11.308699 33.081726 -31.842571 44.705857 -8.916114 -0.420089 -3.058509 17.118898 -26.355595 7.796397 -5.628300 7.125000 0.000000 0.000000 0.143700 -17.467600 0.094000 
-7.652292 13.812684 -9.415186 -147.351319 77.364615 -158.017531 -2.726778 0.299634 -0.520073 -4.754142 -7.542423 -44.688525 21.071761 18.809556 92.672562 2.834838 -22.979221 -8.512277 0.198300 2.867700 7.910700 -1.050737 -3.042385 0.649042 22.039731 5.128062 -48.346004 -19.039511 -19.638443 87.556450 -2.036053 10.324719 -5.173940 -4.371000 -12.638300 38.029300 -2.985975 0.714310 30.611342 0.224837 0.007204 -2.734209 1.021170 1.320162 -2.164676 -1.928345 -2.863111 -2.099997 1.014842 -3.903569 12.178292 3.754000 -2.129900 5.344700 1.928209 1.788079 -0.271774 -85.230451 -22.953632 -54.287428 7.501444 -18.430327 -1.681192 -0.170802 1.891030 -123.240738 20.666775 0.022780 0.343500 -7.125000 0.000000 0.000000 -6.024800 31.002600 2.071000 -1.357783 -0.440762 3.747836 64.685638 -9.212548 35.215661 -31.898616 44.875733 -8.761926 -0.479204 -2.987616 19.030296 -25.359631 8.638418 -5.739400 7.125000 0.000000 0.000000 0.877900 -16.762300 0.587500 
-7.621442 13.672473 -9.424616 -147.272183 77.408183 -158.191586 -2.738788 0.268996 -0.588587 -4.623794 -7.610735 -45.044983 21.647168 18.788773 94.286824 2.937384 -23.314912 -9.555653 0.214400 2.981200 8.226400 -1.070211 -2.988190 0.585084 21.856673 5.265267 -48.648798 -19.550835 -19.659452 89.041867 -2.067578 10.451224 -5.527206 -4.613000 -12.934200 39.122800 -3.066330 0.784750 31.106858 0.274643 0.195532 -2.592300 1.302128 1.407989 -1.688913 -1.969308 -2.904709 -2.273900 0.779077 -3.958831 12.242751 3.609000 -2.167500 5.354900 1.994249 1.955115 -0.152779 -85.608766 -23.852843 -45.152615 6.809717 -19.190280 -1.674796 -0.342427 1.922662 -126.696470 20.921232 0.933602 0.661700 -7.125000 0.000000 0.000000 -5.945300 31.957600 1.906400 -1.327389 -0.631520 3.687734 65.214712 -7.496043 35.573676 -32.383676 45.520446 -8.939898 -0.643099 -2.873371 22.294328 -25.988946 10.547273 -6.773500 7.125000 0.000000 0.000000 0.601800 -14.670100 0.429800 
-7.591001 13.550095 -9.435685 -147.160657 77.442009 -158.190589 -2.746801 0.238541 -0.658902 -4.507536 -7.747888 -45.436189 22.134559 18.756058 95.649311 3.040648 -23.526377 -10.534640 0.228800 3.078600 8.497600 -1.088098 -2.939231 0.525870 21.713844 5.396907 -48.961375 -19.965844 -19.670133 90.249090 -2.092577 10.569981 -5.777116 -4.820800 -13.179100 40.042700 -3.085370 0.860939 31.392508 0.323335 0.417164 -2.449643 1.523532 1.507914 -1.121531 -1.988831 -2.973338 -2.537067 0.587443 -4.062359 12.355406 3.475800 -2.224700 5.405700 2.012227 2.083198 -0.005871 -85.721626 -24.079839 -33.565088 6.520300 -21.071887 -1.797242 -0.614499 1.906909 -133.404192 21.359091 1.975776 1.048200 -7.125000 0.000000 0.000000 -5.725900 33.073900 1.680600 -1.244893 -0.791964 3.631970 65.995348 -6.245771 35.196220 -33.592013 46.692541 -9.581362 -0.708231 -2.885964 25.278321 -27.755409 10.424849 -7.293200 7.125000 0.000000 0.000000 -0.673600 -14.498700 -0.483500 
-7.561995 13.452931 -9.446549 -146.652170 77.433782 -157.762711 -2.746789 0.214598 -0.717275 -4.317438 -7.871372 -45.711869 22.536993 18.724960 96.753676 3.155590 -23.699213 -11.527547 0.219700 3.017500 8.327600 -1.095456 -2.898618 0.475189 21.726754 5.478634 -49.184225 -20.300752 -19.666961 91.219607 -2.115098 10.596051 -6.131880 -4.881400 -13.249000 40.307800 -3.001193 0.908755 31.672408 0.380665 0.638180 -2.320675 1.708873 1.596890 -0.621587 -2.059811 -3.058214 -2.764961 0.472398 -4.177931 12.447235 3.401400 -2.288600 5.449200 1.936664 2.132849 0.179293 -85.431078 -23.137790 -19.579700 7.651915 -25.092509 -2.329768 -0.924843 1.763531 -143.802785 21.871596 2.283996 1.200000 -7.125000 0.000000 0.000000 -5.320700 33.440300 1.513400 -1.121213 -0.879381 3.578538 66.827896 -5.307041 34.741728 -35.157065 48.067745 -10.404583 -0.752381 -2.921419 27.139731 -29.138377 10.396511 -7.761700 7.125000 0.000000 0.000000 -1.657400 -14.242600 -1.199200 
-7.532477 13.380468 -9.459874 -145.382079 77.338941 -156.582866 -2.729366 0.194534 -0.763127 -3.949122 -7.970875 -45.857402 22.859456 18.703498 97.624686 3.255944 -23.914362 -12.354789 0.219800 3.018100 8.329300 -1.087454 -2.869964 0.435537 21.956619 5.502593 -49.312119 -20.562983 -19.652736 91.980486 -2.136193 10.579977 -6.516965 -4.853200 -13.216600 40.184700 -2.735368 0.914616 31.960898 0.459153 0.873210 -2.208983 1.945807 1.684684 -0.257818 -2.227797 -3.160171 -2.804015 0.388422 -4.291438 12.479978 3.379200 -2.358900 5.431800 1.819263 2.157041 0.320899 -85.056808 -22.246210 -9.056136 9.738310 -29.207641 -3.089176 -1.128616 1.521339 -151.985677 21.683659 3.398299 1.574800 -7.125000 0.000000 0.000000 -5.504800 34.551900 1.417200 -0.965205 -0.928979 3.539971 67.364656 -4.634256 34.771339 -36.967398 49.501532 -11.366753 -0.758139 -2.986318 27.251483 -30.195853 10.352401 -8.137100 7.125000 0.000000 0.000000 -2.389600 -14.013200 -1.741400 
